<svg width="20" height="24" viewBox="0 0 20 24" fill="none" xmlns="http://www.w3.org/2000/svg">
<path fill-rule="evenodd" clip-rule="evenodd" d="M10 3.0977L10 1.97799C10 1.24899 9.60184 0.57835 8.9644 0.234128C8.32598 -0.110094 7.55222 -0.0725068 6.95107 0.332053L0.872808 4.4192C0.327551 4.78617 1.67116e-06 5.4034 1.64223e-06 6.06513C1.61331e-06 6.72687 0.327551 7.3441 0.872808 7.71107L6.95107 11.7982C7.55222 12.2028 8.32598 12.2404 8.9644 11.8961C9.60184 11.5519 10 10.8813 10 10.1523L10 9.03257L17.8454 9.03257C18.9291 9.03257 19.8068 8.14728 19.8068 7.05428L19.8068 5.07599C19.8068 3.98299 18.9291 3.0977 17.8454 3.0977L10 3.0977ZM10 14.9674L2.15456 14.9674C1.07091 14.9674 0.193195 15.8527 0.193195 16.9457L0.193195 18.924C0.193194 20.017 1.0709 20.9023 2.15456 20.9023L10 20.9023L10 22.022C10 22.751 10.3982 23.4216 11.0356 23.7659C11.674 24.1101 12.4478 24.0725 13.0489 23.6679L19.1272 19.5808C19.6725 19.2138 20 18.5966 20 17.9349C20 17.2731 19.6725 16.6559 19.1272 16.2889L13.0489 12.2018C12.4478 11.7972 11.674 11.7596 11.0356 12.1039C10.3982 12.4481 10 13.1187 10 13.8477L10 14.9674Z" fill="#4AA0D9"/>
</svg>
