<svg width="28" height="24" viewBox="0 0 28 24" fill="none" xmlns="http://www.w3.org/2000/svg">
<path fill-rule="evenodd" clip-rule="evenodd" d="M11.3333 20V19.559C11.3333 18.0438 12.528 16.8141 14 16.8141C15.472 16.8141 16.6667 18.0438 16.6667 19.559V20C19.7724 18.8691 22 15.8177 22 12.2347C22 7.69006 18.4151 4 14 4C9.58489 4 6 7.69006 6 12.2347C6 15.8177 8.22756 18.8691 11.3333 20ZM15.9973 14.0646C15.5084 14.6246 14.8009 14.9768 14.0133 14.9768C13.2196 14.9768 12.5067 14.6182 12.0178 14.0509C11.6924 13.673 11.1298 13.6382 10.7627 13.9731C10.3956 14.3089 10.3618 14.8872 10.6871 15.2651C11.5022 16.2102 12.6907 16.8068 14.0133 16.8068C15.3253 16.8068 16.5058 16.2203 17.3191 15.2879C17.6471 14.9128 17.6169 14.3336 17.2524 13.996C16.8871 13.6584 16.3253 13.6895 15.9973 14.0646Z" fill="#4AA0D9"/>
<path fill-rule="evenodd" clip-rule="evenodd" d="M2.18301 9.30695C0.934641 9.58319 0 10.6872 0 12.0055C0 13.5327 1.25303 14.7716 2.79552 14.7716C4.33894 14.7716 5.59104 13.5327 5.59104 12.0055C5.59104 10.9246 4.96265 9.98784 4.04855 9.5333C5.16153 5.12002 9.20448 1.84772 14.0149 1.84772C18.8207 1.84772 22.8599 5.11448 23.9785 9.52036C23.0495 9.96936 22.409 10.9145 22.409 12.0055C22.409 13.0948 23.0467 14.0371 23.972 14.4889C23.9683 14.5037 23.9636 14.5194 23.9598 14.5341C22.8917 18.6158 19.3119 21.7033 14.9486 22.0932V19.3899C14.9486 18.88 14.5303 18.4661 14.0149 18.4661C13.4995 18.4661 13.0812 18.88 13.0812 19.3899V23.0761C13.0812 23.5861 13.4995 24 14.0149 24C14.0803 24 14.1447 23.9935 14.2063 23.9806C19.7703 23.8956 24.4304 20.1041 25.7675 14.9979C25.7936 14.8991 25.8179 14.7993 25.8413 14.6995C27.0775 14.414 28 13.3156 28 12.0055C28 10.6983 27.0812 9.60166 25.8487 9.31434C24.6162 3.98368 19.7834 0 14.0149 0C8.2493 0 3.4183 3.97998 2.18301 9.30695Z" fill="#4AA0D9"/>
</svg>
