<svg width="18" height="22" viewBox="0 0 18 22" fill="none" xmlns="http://www.w3.org/2000/svg">
<path d="M11 4.99666V1C11.0601 1.05008 11.1202 1.11018 11.1703 1.16027L16.8397 6.82972C16.8898 6.8798 16.9499 6.9399 17 7H13.0033C12.4725 6.99841 11.9639 6.78684 11.5885 6.41148C11.2132 6.03613 11.0016 5.52749 11 4.99666Z" fill="#4AA0D9"/>
<path d="M17.94 9H13C11.9391 9 10.9217 8.57857 10.1716 7.82843C9.42143 7.07828 9 6.06087 9 5V0.0599999C8.78225 0.0202069 8.56136 0.000125665 8.34 0H3C2.20435 0 1.44129 0.31607 0.87868 0.87868C0.316071 1.44129 0 2.20435 0 3V19C0 19.7956 0.316071 20.5587 0.87868 21.1213C1.44129 21.6839 2.20435 22 3 22H15C15.7956 22 16.5587 21.6839 17.1213 21.1213C17.6839 20.5587 18 19.7956 18 19V9.66C17.9999 9.43864 17.9798 9.21775 17.94 9ZM4 13H8C8.26522 13 8.51957 13.1054 8.70711 13.2929C8.89464 13.4804 9 13.7348 9 14C9 14.2652 8.89464 14.5196 8.70711 14.7071C8.51957 14.8946 8.26522 15 8 15H4C3.73478 15 3.48043 14.8946 3.29289 14.7071C3.10536 14.5196 3 14.2652 3 14C3 13.7348 3.10536 13.4804 3.29289 13.2929C3.48043 13.1054 3.73478 13 4 13ZM14 19H4C3.73478 19 3.48043 18.8946 3.29289 18.7071C3.10536 18.5196 3 18.2652 3 18C3 17.7348 3.10536 17.4804 3.29289 17.2929C3.48043 17.1054 3.73478 17 4 17H14C14.2652 17 14.5196 17.1054 14.7071 17.2929C14.8946 17.4804 15 17.7348 15 18C15 18.2652 14.8946 18.5196 14.7071 18.7071C14.5196 18.8946 14.2652 19 14 19Z" fill="#4AA0D9"/>
</svg>
