<svg width="24" height="24" viewBox="0 0 24 24" fill="none" xmlns="http://www.w3.org/2000/svg">
<path d="M22.8343 16.1161L17.1979 13.7125C16.907 13.5822 16.5878 13.5281 16.2702 13.5555C15.9527 13.5828 15.6474 13.6906 15.3831 13.8688L12.3666 15.8758C10.5281 14.9829 9.03961 13.5028 8.13623 11.6695L10.1312 8.61687C10.3082 8.35233 10.4163 8.04777 10.4456 7.73086C10.475 7.41395 10.4248 7.09471 10.2995 6.80214L7.88385 1.16567C7.71529 0.785073 7.42988 0.468065 7.069 0.260616C6.70813 0.0531664 6.29055 -0.0339382 5.87684 0.0119337C4.25391 0.224538 2.7634 1.01926 1.68244 2.24833C0.601473 3.4774 0.00360825 5.05719 0 6.69398C0 16.2363 7.76367 24 17.306 24C18.9428 23.9964 20.5226 23.3985 21.7517 22.3176C22.9807 21.2366 23.7755 19.7461 23.9881 18.1232C24.0339 17.7094 23.9468 17.2919 23.7394 16.931C23.5319 16.5701 23.2149 16.2847 22.8343 16.1161Z" fill="#4AA0D9"/>
</svg>
