<svg width="0" height="0" class="hidden">
  <symbol fill="none" xmlns="http://www.w3.org/2000/svg" viewBox="0 0 20 24" id="arrows">
    <path fill-rule="evenodd" clip-rule="evenodd" d="M10 3.0977L10 1.97799C10 1.24899 9.60184 0.57835 8.9644 0.234128C8.32598 -0.110094 7.55222 -0.0725068 6.95107 0.332053L0.872808 4.4192C0.327551 4.78617 1.67116e-06 5.4034 1.64223e-06 6.06513C1.61331e-06 6.72687 0.327551 7.3441 0.872808 7.71107L6.95107 11.7982C7.55222 12.2028 8.32598 12.2404 8.9644 11.8961C9.60184 11.5519 10 10.8813 10 10.1523L10 9.03257L17.8454 9.03257C18.9291 9.03257 19.8068 8.14728 19.8068 7.05428L19.8068 5.07599C19.8068 3.98299 18.9291 3.0977 17.8454 3.0977L10 3.0977ZM10 14.9674L2.15456 14.9674C1.07091 14.9674 0.193195 15.8527 0.193195 16.9457L0.193195 18.924C0.193194 20.017 1.0709 20.9023 2.15456 20.9023L10 20.9023L10 22.022C10 22.751 10.3982 23.4216 11.0356 23.7659C11.674 24.1101 12.4478 24.0725 13.0489 23.6679L19.1272 19.5808C19.6725 19.2138 20 18.5966 20 17.9349C20 17.2731 19.6725 16.6559 19.1272 16.2889L13.0489 12.2018C12.4478 11.7972 11.674 11.7596 11.0356 12.1039C10.3982 12.4481 10 13.1187 10 13.8477L10 14.9674Z" fill="#4AA0D9"></path>
  </symbol>
  <symbol fill="none" xmlns="http://www.w3.org/2000/svg" viewBox="0 0 28 24" id="consultation">
    <path fill-rule="evenodd" clip-rule="evenodd" d="M11.3333 20V19.559C11.3333 18.0438 12.528 16.8141 14 16.8141C15.472 16.8141 16.6667 18.0438 16.6667 19.559V20C19.7724 18.8691 22 15.8177 22 12.2347C22 7.69006 18.4151 4 14 4C9.58489 4 6 7.69006 6 12.2347C6 15.8177 8.22756 18.8691 11.3333 20ZM15.9973 14.0646C15.5084 14.6246 14.8009 14.9768 14.0133 14.9768C13.2196 14.9768 12.5067 14.6182 12.0178 14.0509C11.6924 13.673 11.1298 13.6382 10.7627 13.9731C10.3956 14.3089 10.3618 14.8872 10.6871 15.2651C11.5022 16.2102 12.6907 16.8068 14.0133 16.8068C15.3253 16.8068 16.5058 16.2203 17.3191 15.2879C17.6471 14.9128 17.6169 14.3336 17.2524 13.996C16.8871 13.6584 16.3253 13.6895 15.9973 14.0646Z" fill="#4AA0D9"></path>
    <path fill-rule="evenodd" clip-rule="evenodd" d="M2.18301 9.30695C0.934641 9.58319 0 10.6872 0 12.0055C0 13.5327 1.25303 14.7716 2.79552 14.7716C4.33894 14.7716 5.59104 13.5327 5.59104 12.0055C5.59104 10.9246 4.96265 9.98784 4.04855 9.5333C5.16153 5.12002 9.20448 1.84772 14.0149 1.84772C18.8207 1.84772 22.8599 5.11448 23.9785 9.52036C23.0495 9.96936 22.409 10.9145 22.409 12.0055C22.409 13.0948 23.0467 14.0371 23.972 14.4889C23.9683 14.5037 23.9636 14.5194 23.9598 14.5341C22.8917 18.6158 19.3119 21.7033 14.9486 22.0932V19.3899C14.9486 18.88 14.5303 18.4661 14.0149 18.4661C13.4995 18.4661 13.0812 18.88 13.0812 19.3899V23.0761C13.0812 23.5861 13.4995 24 14.0149 24C14.0803 24 14.1447 23.9935 14.2063 23.9806C19.7703 23.8956 24.4304 20.1041 25.7675 14.9979C25.7936 14.8991 25.8179 14.7993 25.8413 14.6995C27.0775 14.414 28 13.3156 28 12.0055C28 10.6983 27.0812 9.60166 25.8487 9.31434C24.6162 3.98368 19.7834 0 14.0149 0C8.2493 0 3.4183 3.97998 2.18301 9.30695Z" fill="#4AA0D9"></path>
  </symbol>
  <symbol fill="none" xmlns="http://www.w3.org/2000/svg" viewBox="0 0 18 22" id="paper">
    <path d="M11 4.99666V1C11.0601 1.05008 11.1202 1.11018 11.1703 1.16027L16.8397 6.82972C16.8898 6.8798 16.9499 6.9399 17 7H13.0033C12.4725 6.99841 11.9639 6.78684 11.5885 6.41148C11.2132 6.03613 11.0016 5.52749 11 4.99666Z" fill="#4AA0D9"></path>
    <path d="M17.94 9H13C11.9391 9 10.9217 8.57857 10.1716 7.82843C9.42143 7.07828 9 6.06087 9 5V0.0599999C8.78225 0.0202069 8.56136 0.000125665 8.34 0H3C2.20435 0 1.44129 0.31607 0.87868 0.87868C0.316071 1.44129 0 2.20435 0 3V19C0 19.7956 0.316071 20.5587 0.87868 21.1213C1.44129 21.6839 2.20435 22 3 22H15C15.7956 22 16.5587 21.6839 17.1213 21.1213C17.6839 20.5587 18 19.7956 18 19V9.66C17.9999 9.43864 17.9798 9.21775 17.94 9ZM4 13H8C8.26522 13 8.51957 13.1054 8.70711 13.2929C8.89464 13.4804 9 13.7348 9 14C9 14.2652 8.89464 14.5196 8.70711 14.7071C8.51957 14.8946 8.26522 15 8 15H4C3.73478 15 3.48043 14.8946 3.29289 14.7071C3.10536 14.5196 3 14.2652 3 14C3 13.7348 3.10536 13.4804 3.29289 13.2929C3.48043 13.1054 3.73478 13 4 13ZM14 19H4C3.73478 19 3.48043 18.8946 3.29289 18.7071C3.10536 18.5196 3 18.2652 3 18C3 17.7348 3.10536 17.4804 3.29289 17.2929C3.48043 17.1054 3.73478 17 4 17H14C14.2652 17 14.5196 17.1054 14.7071 17.2929C14.8946 17.4804 15 17.7348 15 18C15 18.2652 14.8946 18.5196 14.7071 18.7071C14.5196 18.8946 14.2652 19 14 19Z" fill="#4AA0D9"></path>
  </symbol>
  <symbol fill="none" xmlns="http://www.w3.org/2000/svg" viewBox="0 0 21 21" id="clock">
    <path d="M10.5 0C16.2991 0 21 4.70085 21 10.5C21 16.2991 16.2991 21 10.5 21C8.7129 21 7.02975 20.5537 5.5566 19.7663L0 21L1.2348 15.4455C0.4473 13.9713 0 12.2881 0 10.5C0 4.70085 4.70085 0 10.5 0ZM11.55 5.25H9.45V12.6H15.75V10.5H11.55V5.25Z" fill="#4AA0D9"></path>
  </symbol>
  <symbol fill="none" xmlns="http://www.w3.org/2000/svg" viewBox="0 0 24 24" id="phone">
    <path d="M22.8343 16.1161L17.1979 13.7125C16.907 13.5822 16.5878 13.5281 16.2702 13.5555C15.9527 13.5828 15.6474 13.6906 15.3831 13.8688L12.3666 15.8758C10.5281 14.9829 9.03961 13.5028 8.13623 11.6695L10.1312 8.61687C10.3082 8.35233 10.4163 8.04777 10.4456 7.73086C10.475 7.41395 10.4248 7.09471 10.2995 6.80214L7.88385 1.16567C7.71529 0.785073 7.42988 0.468065 7.069 0.260616C6.70813 0.0531664 6.29055 -0.0339382 5.87684 0.0119337C4.25391 0.224538 2.7634 1.01926 1.68244 2.24833C0.601473 3.4774 0.00360825 5.05719 0 6.69398C0 16.2363 7.76367 24 17.306 24C18.9428 23.9964 20.5226 23.3985 21.7517 22.3176C22.9807 21.2366 23.7755 19.7461 23.9881 18.1232C24.0339 17.7094 23.9468 17.2919 23.7394 16.931C23.5319 16.5701 23.2149 16.2847 22.8343 16.1161Z" fill="#4AA0D9"></path>
  </symbol>
</svg>